# xmcd CD database file
#
# Track frame offsets:
#	150
#	20813
#	38268
#	57525
#	80938
#	101875
#	120288
#	138025
#	162713
#	194263
#	214218
#	231075
#	246013
#
# Disc length: 3519 seconds
#
# Revision: 3
# Processed by: cddbd v1.5PL3 Copyright (c) Steve Scherf et al.
# Submitted via: CDex 1.51
#
DISCID=b50dbd0d
DTITLE=Savoy Brown - Bring It Home
DYEAR=1995
DGENRE=Blues
TTITLE0=Mr. Brown's Boogie
TTITLE1=Sweet Loving Thing
TTITLE2=Too Much of a Good Thing
TTITLE3=Misery
TTITLE4=Shake For Me
TTITLE5=Pack It Up
TTITLE6=High On Your Love
TTITLE7=Worried Man
TTITLE8=Little Wheel
TTITLE9=You're In For a Big Surprise
TTITLE10=Real Fine Woman
TTITLE11=That's What Love Will Do
TTITLE12=Baby Please
EXTD=YEAR: 1995
EXTT0=
EXTT1=
EXTT2=
EXTT3=
EXTT4=
EXTT5=
EXTT6=
EXTT7=
EXTT8=
EXTT9=
EXTT10=
EXTT11=
EXTT12=
PLAYORDER=
